<svg version="1.1" xmlns="http://www.w3.org/2000/svg" style="display: block;" viewBox="0 0 2048 2048" width="1024" height="1024" preserveAspectRatio="none">
<path transform="translate(0,0)" fill="rgb(31,91,134)" d="M 1013.11 318.486 C 1107.41 317.709 1222.56 336.188 1302.35 389.444 C 1306.22 386.77 1310.19 384.006 1314.19 381.482 C 1372.19 344.802 1461.58 357.992 1499.37 417.618 C 1523.52 455.735 1520.49 513.057 1488.14 545.692 C 1478.3 555.62 1468.16 562.217 1456.46 569.536 C 1458.87 575.5 1461.39 581.469 1463.93 587.378 C 1476.3 616.081 1483.44 646.344 1493.46 675.763 C 1524.68 633.646 1556.44 599.042 1613.01 599.888 C 1644.14 600.279 1673.81 613.108 1695.41 635.512 C 1717.79 658.889 1727.95 688.945 1727.3 721.018 C 1725.29 820.704 1617.15 968.332 1552.41 1041.14 C 1536.19 1059.38 1518.66 1076.38 1501.1 1093.29 C 1516.59 1178.98 1523.34 1282.43 1522.04 1369.01 C 1521.09 1431.5 1514.9 1510.96 1480.03 1564.33 C 1471.99 1576.63 1461.33 1586.88 1450.73 1597.02 C 1464.86 1601.26 1480.67 1607.83 1492.86 1616.28 C 1505.98 1625.38 1513.8 1636.71 1516.59 1652.53 C 1518.49 1663.28 1516.76 1675.74 1509.86 1684.26 C 1476.93 1724.93 1353.38 1713.13 1308.12 1704.58 C 1296.15 1702.3 1284.28 1699.52 1272.55 1696.24 C 1265.85 1694.4 1245.73 1688.43 1239.39 1688.45 C 1222.56 1688.5 1200.54 1693.39 1182.91 1695.65 C 1087.02 1706.13 986.958 1708.07 891.007 1697.59 C 875.759 1695.92 856.378 1691.09 841.376 1691.41 C 822.438 1691.82 800.874 1701.89 781.926 1704.88 C 715.881 1717.81 641.645 1726.79 577.679 1700.63 C 551.853 1690.07 542.525 1664.44 554.806 1639.34 C 565.387 1617.72 586.818 1608.04 608.683 1600.42 C 543.551 1544.96 539.533 1475.24 541.723 1395.37 C 542.144 1380.03 541.563 1360.52 543.989 1345.73 C 523.817 1358.9 508.292 1366.39 483.54 1365.08 C 455.229 1363.59 434.546 1353.83 415.361 1332.9 C 391.45 1306.8 384.118 1272.3 386.292 1237.82 C 391.803 1150.4 485.16 1036.47 548.064 980.753 C 548.429 954.633 546.303 928.263 547.168 900.692 C 550.007 810.148 556.001 716.99 577.483 628.756 C 580.098 618.017 585.316 598.721 589.843 589.355 C 565.705 572.185 542.982 548.405 536.118 518.983 C 509.607 405.345 631.593 343.872 723.745 397.284 C 808.223 336.538 911.559 320.347 1013.11 318.486 z"/>
<path transform="translate(0,0)" fill="rgb(71,172,211)" d="M 573.271 959.192 C 570.905 905.253 571.598 851.223 575.348 797.362 C 582.06 692.838 596.47 594.888 650.508 503.106 C 696.751 424.564 776.475 377.061 863.812 356.017 C 996.691 323.999 1170.94 331.026 1290.88 402.388 C 1405.57 470.631 1446.79 579.736 1477.34 702.357 C 1462.4 730.648 1395.4 869.472 1403.4 895.767 L 1405.09 896.658 C 1408.1 895.1 1412.06 888.567 1413.64 885.353 C 1438.88 833.84 1461.1 780.165 1488.45 729.718 C 1520.02 668.018 1577.57 595.177 1654.64 635.6 C 1740.8 680.792 1691.99 796.866 1653.92 859.089 C 1619.22 919.41 1578.79 976.241 1533.18 1028.79 C 1515.06 1049.46 1495.16 1068.35 1477.92 1087.88 L 1477.94 1089.31 C 1478.4 1113.97 1486.02 1155.94 1488.36 1183.34 C 1497.1 1285.85 1504.8 1398.62 1478.99 1498.92 C 1472.92 1522.52 1457.45 1552.35 1440.65 1570.07 C 1421.37 1590.42 1400.76 1601.02 1376.52 1613.71 C 1279.83 1664.33 1163.98 1674.59 1056.5 1678.27 C 975.018 1681.06 884.408 1673.75 805.67 1651.94 C 781.222 1645.17 756.637 1632.95 732.444 1625.26 C 692.414 1612.74 648.113 1603.26 617.037 1572.87 C 577.218 1533.94 567.532 1473.21 567.127 1419.54 C 566.859 1384.02 568.446 1343.96 571.879 1308.3 C 572.62 1300.59 582.784 1288.08 584.857 1279.89 C 591.642 1260.24 634.325 1149.8 626.769 1134.58 L 625.049 1133.8 C 612.357 1143.71 585.677 1219.23 577.756 1238.83 C 570.588 1257.22 564.409 1274.43 555.359 1292.06 C 537.71 1328.87 493.18 1356.56 453.84 1332.81 C 386.185 1291.96 410.327 1206.26 440.5 1151.94 C 441.393 1149.65 448.391 1138.07 450.068 1135.26 C 469.281 1103.37 491.1 1073.13 515.303 1044.85 C 525.819 1032.49 588.64 966.192 590.514 959.343 C 591.037 957.429 590.974 958.217 589.833 956.249 C 584.632 954.39 578.475 957.33 573.271 959.192 z"/>
<path transform="translate(0,0)" fill="rgb(223,194,150)" d="M 1488.45 729.718 C 1520.02 668.018 1577.57 595.177 1654.64 635.6 C 1740.8 680.792 1691.99 796.866 1653.92 859.089 C 1580.07 836.017 1529.16 795.798 1488.45 729.718 z"/>
<path transform="translate(0,0)" fill="rgb(223,194,150)" d="M 440.5 1151.94 C 469.344 1191.46 530.678 1226.68 577.756 1238.83 C 570.588 1257.22 564.409 1274.43 555.359 1292.06 C 537.71 1328.87 493.18 1356.56 453.84 1332.81 C 386.185 1291.96 410.327 1206.26 440.5 1151.94 z"/>
<path transform="translate(0,0)" fill="rgb(177,223,228)" d="M 1059.01 1004.45 C 1133.07 1001.33 1210.14 1034.49 1264.45 1084.02 C 1414.84 1221.15 1430.21 1514.46 1234.5 1620.23 C 1187.98 1645.36 1125.53 1658 1072.76 1660.01 C 986.929 1660.66 912.132 1644.54 844.572 1586.36 C 782.803 1532.56 754.642 1459.51 750.544 1379.4 C 740.8 1188.95 858.685 1015.46 1059.01 1004.45 z"/>
<path transform="translate(0,0)" fill="rgb(71,172,211)" d="M 1080.29 1070.4 C 1104.92 1067.54 1135.24 1073.06 1157.62 1083.73 C 1201.48 1104.64 1227.95 1142.02 1243.81 1186.98 C 1271.66 1186.72 1295.77 1192.15 1316.36 1212.1 C 1378.85 1272.19 1361.38 1390.59 1272.96 1414.69 C 1236.18 1424.72 1193.04 1422.07 1154.75 1422.12 L 1046.84 1422.51 L 939.419 1423.26 C 898.786 1423.7 849.793 1428.52 814.26 1406.19 C 793.821 1393.34 779.497 1372.72 774.586 1349.09 C 768.526 1321.31 773.935 1292.26 789.588 1268.52 C 809.543 1238.42 835.077 1229.24 868.756 1222.56 C 875.054 1156.31 911.199 1131.66 975.606 1130.57 C 1001.36 1090.93 1034.23 1074.87 1080.29 1070.4 z"/>
<path transform="translate(0,0)" fill="rgb(254,254,254)" d="M 1097.44 1131.4 C 1167.05 1127.78 1210.51 1184.04 1219.51 1248.17 C 1249.33 1250.31 1276.42 1256.53 1288.18 1288.39 C 1303.11 1327.44 1285.35 1373.21 1241.99 1381.84 C 1213.14 1387.58 1179.77 1385.67 1150.1 1385.78 C 1108.36 1385.77 1066.62 1386.17 1024.89 1386.98 L 933.269 1388.04 C 906.603 1388.28 873.021 1391.85 850.18 1376.23 C 823.616 1358.07 824.332 1318.08 843.035 1294.59 C 856.908 1277.16 877.777 1272.83 898.65 1270.24 C 912.444 1208.21 954.379 1176.87 1017.71 1182.8 C 1035.96 1151.54 1061.46 1134.95 1097.44 1131.4 z"/>
<path transform="translate(0,0)" fill="rgb(71,172,211)" d="M 1120.87 1217.49 C 1143.96 1217.21 1167.04 1217.12 1190.12 1217.2 L 1186.54 1244.64 L 1136.01 1245.02 C 1134.94 1250.23 1133.46 1255.8 1132.2 1261 C 1146.36 1260.99 1160.81 1260.47 1173.8 1267.51 C 1193.31 1277.99 1193.19 1304.25 1182.76 1321.17 C 1173.86 1335.6 1162.35 1340.88 1146.76 1344.66 C 1125.02 1349.28 1104.52 1344.9 1083.38 1339.29 C 1086.45 1329.99 1089.29 1320.61 1091.91 1311.17 C 1109.46 1316.5 1131.49 1322.83 1147.7 1309.68 C 1150.3 1307.87 1154.16 1302.04 1153.57 1298.7 C 1150.17 1279.49 1108.54 1286.23 1095.48 1287.37 C 1097.72 1267.31 1104.63 1237.7 1108.76 1217.56 L 1120.87 1217.49 z"/>
<path transform="translate(0,0)" fill="rgb(71,172,211)" d="M 1057.67 1218.09 C 1065.68 1217.38 1075.1 1217.71 1083.25 1217.79 C 1082.95 1230.08 1079.91 1250.89 1078.35 1263.53 C 1075.2 1290.44 1071.61 1317.29 1067.58 1344.07 C 1059.19 1344.15 1040.11 1344.86 1032.76 1343.76 C 1031.63 1340.55 1032.6 1337.51 1033.18 1334.03 C 1034.46 1310.59 1040.82 1280.73 1042.41 1254.61 C 1033.36 1258.87 1025.45 1262.15 1016.21 1265.85 C 1016.35 1256.83 1016.64 1247.8 1017.06 1238.78 C 1026.45 1232.96 1047.22 1223 1057.67 1218.09 z"/>
<path transform="translate(0,0)" fill="rgb(71,172,211)" d="M 983.795 1218.16 C 990.676 1217.81 999.376 1218.03 1006.4 1218.02 C 1005.87 1234.8 1002.38 1256.52 1000.1 1273.56 C 997.107 1297.24 993.994 1320.9 990.757 1344.55 C 978.83 1344.77 966.899 1344.79 954.971 1344.62 L 957.099 1330.17 C 960.52 1304.93 964.595 1280.46 966.364 1254.92 L 939.191 1266.04 C 939.456 1256.73 939.683 1248.17 939.447 1238.83 C 952.131 1231.27 969.762 1222.04 983.795 1218.16 z"/>
<path transform="translate(0,0)" fill="rgb(31,91,134)" d="M 1220.73 430.429 C 1240.49 428.23 1263.65 433.356 1282.39 439.346 C 1365.73 465.985 1413.15 562.798 1384.04 645.808 C 1371.42 680.95 1345.35 709.637 1311.57 725.55 C 1269.76 745.297 1224.71 740.185 1182.46 725.082 C 1195.49 766.412 1181.45 783.41 1147.98 804.04 C 1148.31 839.584 1146.66 878.269 1123.33 907.287 C 1091.18 947.073 1029.71 951.499 990.665 919.249 C 958.532 892.708 952.836 857.312 949.34 818.222 C 906.758 801.051 896.948 783.935 906.295 738.885 C 865.095 753.935 839.125 758.554 795.189 748.604 C 788.346 746.671 781.611 744.373 775.015 741.718 C 737.275 726.454 707.312 696.576 691.942 658.879 C 676.392 619.979 677.029 576.479 693.713 538.052 C 710.337 499.21 744.072 467.534 783.312 452.224 C 824.255 436.493 869.751 437.553 909.917 455.174 C 985.116 488.916 1019.97 572.92 991.428 649.768 C 988.86 656.683 985.756 663.413 982.707 670.125 C 1024.92 638.973 1053.8 641.489 1099.59 663.278 C 1063.4 603.137 1060.53 539.137 1107.55 482.631 C 1137.15 447.056 1175.46 433.749 1220.73 430.429 z"/>
<path transform="translate(0,0)" fill="rgb(254,254,254)" d="M 827.914 455.029 C 905.905 447.693 975.076 504.973 982.408 582.964 C 989.739 660.956 932.455 730.123 854.463 737.451 C 776.478 744.777 707.317 687.499 699.986 609.514 C 692.655 531.529 749.929 462.365 827.914 455.029 z"/>
<path transform="translate(0,0)" fill="rgb(0,0,0)" d="M 884.905 521.53 C 925.321 516.117 962.42 544.633 967.585 585.081 C 972.751 625.529 944.008 662.453 903.529 667.371 C 863.399 672.246 826.863 643.805 821.742 603.705 C 816.621 563.606 844.838 526.896 884.905 521.53 z"/>
<path transform="translate(0,0)" fill="rgb(254,254,254)" d="M 908.645 542.48 C 916.033 540.495 923.916 542.668 929.244 548.157 C 934.572 553.646 936.509 561.59 934.305 568.916 C 932.101 576.241 926.103 581.798 918.63 583.436 C 907.443 585.888 896.345 578.962 893.632 567.835 C 890.92 556.709 897.585 545.452 908.645 542.48 z"/>
<path transform="translate(0,0)" fill="rgb(254,254,254)" d="M 1212.26 446.361 C 1247.87 441.27 1290.68 455.691 1318.89 477.174 C 1350.75 501.233 1371.36 537.288 1375.94 576.946 C 1386.16 658.49 1334.02 711.19 1255.77 720.902 C 1212.8 722.055 1182.3 711.839 1147.09 686.289 C 1117.25 664.631 1096.23 632.99 1091.14 595.966 C 1086.08 560.663 1095.42 524.806 1117.07 496.465 C 1141.09 465.401 1174.3 451.403 1212.26 446.361 z"/>
<path transform="translate(0,0)" fill="rgb(0,0,0)" d="M 1183.05 515.543 C 1223.17 512.468 1258.2 542.453 1261.36 582.568 C 1264.52 622.683 1234.61 657.782 1194.5 661.023 C 1154.27 664.273 1119.05 634.253 1115.88 594.021 C 1112.71 553.789 1142.81 518.626 1183.05 515.543 z"/>
<path transform="translate(0,0)" fill="rgb(254,254,254)" d="M 1201.18 536.44 C 1208.48 534.658 1216.17 536.942 1221.32 542.419 C 1226.46 547.897 1228.26 555.719 1226.02 562.891 C 1223.78 570.064 1217.86 575.477 1210.51 577.059 C 1199.37 579.458 1188.37 572.461 1185.81 561.352 C 1183.26 550.243 1190.11 539.144 1201.18 536.44 z"/>
<path transform="translate(0,0)" fill="rgb(223,194,150)" d="M 1103.73 683.538 C 1125.22 691.286 1149.8 702.644 1161.3 722.558 C 1180.26 755.375 1162.87 787.733 1124.52 785.672 C 1095.38 784.105 1075.39 777.742 1048.49 769.834 C 1040.47 771.651 1032.04 775.51 1024.41 778.688 C 998.834 789.349 974.862 800.13 946.632 794.544 C 908.284 780.305 917.942 745.622 938.564 720.544 C 950.321 706.245 965.995 696.893 982.769 689.523 C 994.303 717.248 1012.42 727.01 1041.17 729.537 C 1042.12 736.125 1042.05 743.655 1048.62 746.83 L 1050.9 745.994 C 1055.17 740.674 1054.71 736.627 1055.11 729.818 C 1086.07 723.694 1096.1 713.965 1103.73 683.538 z"/>
<path transform="translate(0,0)" fill="rgb(254,254,254)" d="M 1028.59 796.854 L 1030.37 797.141 C 1037.68 803.462 1040.84 839.126 1040.77 849.272 C 1040.57 878.979 1020.6 889.305 994.725 875.292 C 979.84 862.266 977.525 833.388 975.088 814.738 C 995.367 808.917 1008.99 804.604 1028.59 796.854 z"/>
<path transform="translate(0,0)" fill="rgb(254,254,254)" d="M 1069.65 794.275 C 1087.46 796.738 1106.98 801.856 1124.64 806.146 C 1123.91 828.35 1123.83 850.193 1111.3 869.331 C 1084.9 894.125 1064.04 865.636 1064.52 838.6 C 1064.77 824.728 1059.72 805.955 1069.65 794.275 z"/>
<path transform="translate(0,0)" fill="rgb(71,172,211)" d="M 1385.56 380.418 C 1450.4 375.084 1510.27 428.71 1493.68 495.605 C 1486.81 523.317 1473.66 535.883 1450.14 550.557 L 1434.88 523.9 L 1425.53 507.55 C 1433.76 502.666 1440.53 497.031 1444.74 488.173 C 1448.38 480.495 1448.71 471.663 1445.67 463.732 C 1434.52 434.392 1397.42 432.447 1372.02 442.567 C 1357.74 427.425 1339.9 412.661 1323.08 400.341 C 1342.97 388.112 1362.36 382.486 1385.56 380.418 z"/>
<path transform="translate(0,0)" fill="rgb(223,194,150)" d="M 587.656 1683.68 C 573.137 1675.14 567.565 1663.1 577.397 1648.27 C 617.376 1587.96 701.819 1637.07 752.494 1655.01 C 767.032 1660.16 784.237 1665.41 795.813 1672.63 C 765.512 1692.65 696.028 1698.36 660.056 1698.94 C 652.394 1699.06 647.873 1698.74 640.21 1697.97 C 626.801 1695.81 617.956 1693.96 605.085 1689.72 C 598.008 1687.73 594.422 1686.52 587.656 1683.68 z"/>
<path transform="translate(0,0)" fill="rgb(177,149,109)" d="M 587.656 1683.68 C 590.4 1647.4 604.484 1634.22 640.316 1630.52 C 608.305 1643.12 603.304 1657.43 605.085 1689.72 C 598.008 1687.73 594.422 1686.52 587.656 1683.68 z"/>
<path transform="translate(0,0)" fill="rgb(177,149,109)" d="M 640.21 1697.97 C 640.352 1663.76 641.852 1653.88 677.428 1643.62 C 652.791 1664.01 649.822 1668.46 660.056 1698.94 C 652.394 1699.06 647.873 1698.74 640.21 1697.97 z"/>
<path transform="translate(0,0)" fill="rgb(223,194,150)" d="M 1279.45 1671.9 C 1320.09 1660.87 1357.64 1649.12 1395.28 1630.26 C 1410.48 1623.19 1425.47 1617.04 1442.72 1617.73 C 1466.21 1618.66 1503.79 1638.96 1495.97 1667.02 C 1494.41 1672.65 1487.64 1678.02 1482.94 1681.66 C 1477.73 1684.34 1474.98 1685.8 1469.31 1687.69 C 1454.56 1692.22 1445.73 1693.28 1430.15 1694.13 C 1423.45 1694.79 1416 1695 1409.29 1694.39 C 1374.18 1693.18 1308.69 1690.57 1279.45 1671.9 z"/>
<path transform="translate(0,0)" fill="rgb(177,149,109)" d="M 1390.13 1638.96 C 1424.16 1648.52 1429.67 1660.46 1430.15 1694.13 C 1423.45 1694.79 1416 1695 1409.29 1694.39 C 1413.06 1692.62 1411.64 1693.45 1413.31 1689.64 C 1423.22 1667.07 1405.95 1652.92 1390.13 1638.96 z"/>
<path transform="translate(0,0)" fill="rgb(177,149,109)" d="M 1436.41 1634.72 C 1468.58 1641.09 1477.9 1648.36 1482.94 1681.66 C 1477.73 1684.34 1474.98 1685.8 1469.31 1687.69 C 1469.18 1657.38 1463.17 1648.37 1436.41 1634.72 z"/>
<path transform="translate(0,0)" fill="rgb(71,172,211)" d="M 647.581 396.419 C 668.696 394.708 686.683 400.284 705.538 409.027 C 687.986 423.567 676.989 435.361 662.446 452.456 C 656.335 449.1 648.95 448.194 642.009 447.951 C 609.695 446.818 583.002 478.37 601.808 508.468 C 605.504 514.385 609.084 517.681 614.047 522.575 C 611.34 528.268 608.918 533.958 606.428 539.746 C 602.575 547.729 598.422 558.406 594.897 566.745 C 549.369 538.435 536.361 473.91 572.481 432.605 C 592.99 409.153 616.915 398.996 647.581 396.419 z"/>
</svg>