<svg version="1.1" xmlns="http://www.w3.org/2000/svg" style="display: block;" viewBox="0 0 2048 2048" width="1024" height="1024" preserveAspectRatio="none">
<defs>
	<linearGradient id="Gradient1" gradientUnits="userSpaceOnUse" x1="330.108" y1="1016.24" x2="704.683" y2="1462.03">
		<stop class="stop0" offset="0" stop-opacity="1" stop-color="rgb(217,249,253)"/>
		<stop class="stop1" offset="1" stop-opacity="1" stop-color="rgb(255,255,255)"/>
	</linearGradient>
</defs>
<path transform="translate(0,0)" fill="rgb(28,91,136)" d="M 739.703 395.419 C 822.663 340.47 914.316 321.334 1012.42 317.561 C 1067.75 315.026 1123.18 319.138 1177.53 329.808 C 1232.6 340.994 1280.58 357.568 1328.4 387.553 C 1353.38 371.148 1375.92 362.954 1405.88 360.413 C 1486.95 353.539 1560.97 415.443 1541.77 500.469 C 1534.92 530.799 1519.38 550.279 1493.1 566.84 C 1490.29 568.609 1487.45 570.351 1484.6 572.065 C 1497.3 597.494 1506.35 625.902 1514.07 653.2 C 1517.67 665.954 1521.48 682.743 1525.68 694.873 C 1535.76 675.509 1547.76 660.356 1569.33 654.024 C 1598.33 645.516 1619.36 651.962 1634.17 678.378 C 1656.79 665.974 1687.08 678.105 1699.26 699.846 C 1706.23 712.278 1706.71 732.497 1702.28 746.033 C 1701.9 747.2 1701.5 748.361 1701.08 749.516 C 1735.6 763.259 1739.71 801.66 1719.55 829.111 C 1709.01 843.477 1699.41 849.844 1683.03 856.057 L 1677.9 858 C 1670.81 873.395 1666.49 898.972 1659.71 916.626 C 1631.91 989.031 1591.09 1058.71 1529.89 1107.77 C 1533.07 1130.83 1537.48 1154.61 1539.87 1177.67 C 1549.78 1273.25 1556.79 1369.29 1544.01 1464.95 C 1535.75 1526.68 1525.29 1570.44 1478.9 1615.56 C 1500.42 1621.87 1532 1633.5 1541.31 1655.48 C 1582.06 1751.65 1393.94 1734.1 1348.47 1726.98 C 1318.81 1722.33 1289.57 1715.32 1261.03 1706.02 C 1233.71 1711.98 1202.79 1715.22 1175 1717.9 C 1102.54 1725.45 1029.55 1726.63 956.881 1721.42 C 935.934 1719.83 915.037 1717.63 894.217 1714.82 C 888.204 1714.03 860.843 1709.84 856.001 1710.28 C 834.155 1712.39 814.169 1722.28 792.438 1726.22 C 726.49 1738.17 640.168 1749.2 579.1 1715.52 C 552.85 1701.04 553.316 1671.16 568.779 1648.83 C 581.756 1630.09 597.262 1623.3 618.763 1617.52 C 601.071 1603.89 592.065 1593.97 579.688 1574.9 C 578.886 1573.66 579.183 1574.05 577.986 1573.12 L 566.955 1577.02 C 562.868 1577 541.843 1582.99 534.971 1584.12 C 500.072 1589.95 464.312 1587.91 430.304 1578.15 C 396.127 1590.62 311.196 1600.13 283.505 1565.54 C 268.455 1546.74 276.391 1516.48 295.749 1503 C 312.174 1491.57 326.915 1489.64 346.641 1492.3 C 352.324 1487.91 355.197 1481.31 358.049 1474.83 C 342.311 1453.67 323.41 1418.65 313.628 1394.21 C 271.126 1288.06 272.623 1169.35 317.786 1064.3 C 355.825 974.322 422.756 899.581 508.007 851.881 C 519.217 845.733 533.384 838.016 545.174 833.291 C 549.59 830.761 554.911 828.803 559.67 826.859 C 562.262 811.618 563.284 794.282 564.595 778.782 C 570.052 714.307 581.099 653.31 599.628 591.16 C 591.658 584.096 583.004 577.947 575.454 570.298 C 556.797 551.412 543.918 524.623 542.406 498.011 C 541.36 479.592 545.224 457.15 553.614 440.792 C 574.29 400.48 618.16 378.505 662.142 375.932 C 688.308 374.401 716.79 384.061 739.703 395.419 z"/>
<path transform="translate(0,0)" fill="rgb(72,178,219)" d="M 559.67 826.859 C 559.611 848.13 557.919 871.243 557.472 892.903 C 557.049 924.462 557.531 956.026 558.918 987.557 C 500.055 1046.38 412.956 1148.46 408.68 1236.63 C 407.945 1251.81 415.157 1273.58 426.498 1283.45 C 443.909 1298.6 480.261 1318.28 503.553 1316.81 C 516.357 1315.99 544.929 1313.81 556.341 1309.76 C 552.657 1331.02 551.616 1356.43 550.631 1377.77 C 547.855 1437.9 544.83 1502.62 571.44 1558.34 C 572.531 1560.63 577.878 1571.74 577.986 1573.12 L 566.955 1577.02 C 562.868 1577 541.843 1582.99 534.971 1584.12 C 500.072 1589.95 464.312 1587.91 430.304 1578.15 C 396.127 1590.62 311.196 1600.13 283.505 1565.54 C 268.455 1546.74 276.391 1516.48 295.749 1503 C 312.174 1491.57 326.915 1489.64 346.641 1492.3 C 352.324 1487.91 355.197 1481.31 358.049 1474.83 C 342.311 1453.67 323.41 1418.65 313.628 1394.21 C 271.126 1288.06 272.623 1169.35 317.786 1064.3 C 355.825 974.322 422.756 899.581 508.007 851.881 C 519.217 845.733 533.384 838.016 545.174 833.291 C 549.59 830.761 554.911 828.803 559.67 826.859 z"/>
<path transform="translate(0,0)" fill="rgb(72,178,219)" d="M 387.667 1506.69 C 363.269 1439.07 436.922 1401.29 491.394 1429.11 C 517.397 1442.39 533.804 1466.92 542.625 1494.07 C 545.595 1503.44 547.52 1516.79 549.673 1526.76 C 553.276 1544.18 559.083 1561.07 566.955 1577.02 C 562.868 1577 541.843 1582.99 534.971 1584.12 C 500.072 1589.95 464.312 1587.91 430.304 1578.15 C 396.127 1590.62 311.196 1600.13 283.505 1565.54 C 268.455 1546.74 276.391 1516.48 295.749 1503 C 312.174 1491.57 326.915 1489.64 346.641 1492.3 C 347.108 1495.91 346.445 1495.98 348.522 1497.63 C 362.995 1499.08 374.27 1501.01 387.667 1506.69 z"/>
<path transform="translate(0,0)" fill="url(#Gradient1)" d="M 559.67 826.859 C 559.611 848.13 557.919 871.243 557.472 892.903 C 557.049 924.462 557.531 956.026 558.918 987.557 C 500.055 1046.38 412.956 1148.46 408.68 1236.63 C 407.945 1251.81 415.157 1273.58 426.498 1283.45 C 443.909 1298.6 480.261 1318.28 503.553 1316.81 C 516.357 1315.99 544.929 1313.81 556.341 1309.76 C 552.657 1331.02 551.616 1356.43 550.631 1377.77 C 547.855 1437.9 544.83 1502.62 571.44 1558.34 C 572.531 1560.63 577.878 1571.74 577.986 1573.12 L 566.955 1577.02 C 559.083 1561.07 553.276 1544.18 549.673 1526.76 C 547.52 1516.79 545.595 1503.44 542.625 1494.07 C 533.804 1466.92 517.397 1442.39 491.394 1429.11 C 436.922 1401.29 363.269 1439.07 387.667 1506.69 C 374.27 1501.01 362.995 1499.08 348.522 1497.63 C 346.445 1495.98 347.108 1495.91 346.641 1492.3 C 352.324 1487.91 355.197 1481.31 358.049 1474.83 C 361.985 1461.32 365.297 1451.43 372.978 1439.48 C 396.461 1402.93 442.882 1381.86 484.875 1398.04 C 494.73 1401.84 501.828 1406.69 510.554 1412.58 C 519.404 1397.08 525.251 1392.14 540.789 1383.64 C 541.652 1363.33 543.286 1343.06 545.687 1322.87 C 512.758 1324.17 480.322 1321.7 449.499 1309.13 C 410.113 1293.08 395.02 1245.82 403.446 1206.61 C 418.8 1135.16 465.258 1071.97 513.368 1018.69 C 522.526 1008.56 535.221 995.359 546.155 987.547 C 543.56 949.505 541.718 913.81 543.102 875.503 C 543.594 861.885 543.416 846.667 545.174 833.291 C 549.59 830.761 554.911 828.803 559.67 826.859 z"/>
<path transform="translate(0,0)" fill="rgb(226,195,146)" d="M 472.735 920.482 C 475.248 925.578 475.413 931.933 479.233 938.558 C 484.575 947.821 492.986 948.987 502.894 951.871 C 480.674 956.993 479.084 959.416 473.738 981.349 C 465.609 959.978 467.082 957.921 443.006 951.992 C 465.746 945.94 467.705 943.872 472.735 920.482 z"/>
<path transform="translate(0,0)" fill="rgb(72,178,219)" d="M 584.834 966.748 C 584.767 939.859 582.833 910.936 583.536 884.28 C 586.945 754.93 596.226 611.133 666.688 498.847 C 716.527 419.426 801.15 373.045 890.634 353.429 C 1025.21 323.928 1205.63 332.315 1324.68 407.531 C 1439.28 479.936 1480.46 593.843 1508.59 719.083 C 1457.24 738.297 1477.03 779.003 1466.83 819.816 C 1462.98 835.219 1451.02 855.165 1442.8 868.984 C 1429.33 891.604 1422.81 908.427 1418.06 934.026 C 1439.02 915.276 1475.43 858.147 1486.25 831.742 C 1495.88 867.352 1509.03 895.318 1542.18 914.345 C 1575.82 933.655 1603.92 929.515 1636.93 912.185 C 1613.15 971.339 1556.04 1067.59 1495.64 1097.59 C 1492.88 1098.96 1483.56 1102.26 1480.12 1103.45 C 1489.01 1105.93 1496.36 1107.94 1505.66 1108.5 C 1521.11 1231.35 1537.77 1388.81 1507.3 1510.52 C 1501.93 1531.97 1487.78 1560.17 1474.03 1578.14 C 1452.81 1605.87 1426.42 1618.6 1396.27 1633.86 C 1330.51 1667.14 1261.18 1680.31 1187.98 1689.2 C 1070.51 1703.47 939.882 1700.12 824.562 1671.67 C 797.554 1665.73 771.964 1650.89 746.092 1643.11 C 709.8 1632.19 669.067 1623.82 638.704 1599.24 C 567.612 1541.68 574.795 1437.09 579.285 1355.08 C 580.396 1334.8 581.415 1307.22 584.997 1287.86 C 627.196 1246.81 679.417 1172.75 682.801 1113.15 C 674.367 1126.91 666.909 1142.27 658.701 1155.55 C 644.864 1177.92 625.679 1206.62 608.677 1226.48 C 593.506 1245.69 569.884 1280.29 544.554 1284.86 C 525.439 1288.3 531.857 1253.16 533.422 1244.14 C 533.989 1240.88 533.463 1234.88 533.244 1231.23 C 524.44 1248.95 525.336 1273.96 512.041 1287.16 C 504.515 1294.64 481.483 1289.28 475.085 1280.7 C 468.263 1271.54 475.024 1239.52 470.975 1233.4 C 464.942 1237.29 460.675 1267.06 459.256 1274.64 C 449.249 1268.54 441.559 1262.35 438.145 1250.47 C 430.669 1224.48 451.034 1178.11 463.22 1154.94 C 496.312 1079.04 581.821 989.399 651.098 944.801 C 625.457 944.773 605.25 951.736 584.834 966.748 z"/>
<path transform="translate(0,0)" fill="rgb(226,195,146)" d="M 463.22 1154.94 C 500.467 1142.54 534.869 1151.06 567.032 1172.84 C 589.118 1187.79 600.093 1201.36 608.677 1226.48 C 593.506 1245.69 569.884 1280.29 544.554 1284.86 C 525.439 1288.3 531.857 1253.16 533.422 1244.14 C 533.989 1240.88 533.463 1234.88 533.244 1231.23 C 524.44 1248.95 525.336 1273.96 512.041 1287.16 C 504.515 1294.64 481.483 1289.28 475.085 1280.7 C 468.263 1271.54 475.024 1239.52 470.975 1233.4 C 464.942 1237.29 460.675 1267.06 459.256 1274.64 C 449.249 1268.54 441.559 1262.35 438.145 1250.47 C 430.669 1224.48 451.034 1178.11 463.22 1154.94 z"/>
<path transform="translate(0,0)" fill="rgb(179,225,233)" d="M 1074.34 1013.42 L 1075.71 1013.31 C 1149.85 1007.94 1229.23 1041.04 1285.31 1089.4 C 1417.28 1203.19 1452.71 1441.64 1334.77 1577.17 C 1273.43 1647.66 1188.31 1672.99 1097.25 1678.63 C 921.522 1685.55 776.349 1583.75 765.447 1398.65 C 754.198 1207.65 871.768 1025.78 1074.34 1013.42 z"/>
<path transform="translate(0,0)" fill="rgb(37,142,200)" d="M 1098.32 1079.4 C 1179.78 1072.67 1242.44 1121.48 1267.96 1197.13 C 1337.8 1195.83 1377.16 1247.4 1379.55 1313.45 C 1381.66 1371.75 1344.1 1419.73 1287.21 1432.18 C 1255.77 1439.06 1216.15 1436.91 1183.59 1437.06 L 1068.23 1438.03 L 948.843 1439.03 C 906.766 1439.25 864.63 1443.31 827.703 1418.79 C 789.447 1393.88 778.486 1345.18 793.81 1303.43 C 809.591 1260.43 842.049 1241.35 884.985 1233.76 C 892.997 1170.42 929.859 1138.7 993.893 1140.58 C 996.581 1136.8 999.417 1133.13 1002.39 1129.58 C 1027.64 1099.07 1059.04 1083.02 1098.32 1079.4 z"/>
<path transform="translate(0,0)" fill="rgb(254,254,254)" d="M 1114.17 1141.33 C 1157.11 1135.01 1198.55 1159.77 1220.5 1195.48 C 1233.64 1216.87 1239.27 1235.52 1243.48 1259.72 C 1287.6 1260.15 1315.9 1280.09 1318.75 1327.03 C 1320.84 1361.64 1296.39 1391.65 1262.31 1397.05 C 1239.93 1400.6 1213.58 1399.49 1190.54 1399.77 C 1143.02 1400.44 1095.51 1400.84 1047.99 1400.96 L 945.123 1402.25 C 927.749 1402.37 909.593 1403.74 892.443 1400.89 C 846.389 1393.21 831.46 1342.92 859.32 1307.97 C 873.665 1289.98 894.073 1284.33 915.864 1282.02 C 921.716 1255.61 930.769 1237.09 951.379 1218.86 C 978.57 1194.81 1001.96 1190.94 1036.77 1193.2 C 1038.9 1190.11 1041.07 1187.05 1043.28 1184.02 C 1061.25 1159.63 1084.52 1145.93 1114.17 1141.33 z"/>
<path transform="translate(0,0)" fill="rgb(37,142,200)" d="M 1130.73 1228.57 C 1158.19 1228.8 1185.6 1228.3 1213.08 1229.02 C 1211.61 1238.12 1210.46 1247.93 1209.22 1257.11 C 1192.13 1256.8 1174.5 1257 1157.37 1256.99 L 1153.9 1274.21 C 1173.92 1273.09 1199.64 1271.5 1209.81 1293.96 C 1214.42 1304.14 1213.14 1319.62 1208.62 1329.75 C 1202.34 1343.8 1192.85 1350.83 1178.94 1356.3 C 1153.78 1363.22 1128.76 1361.22 1104.3 1352.66 L 1113 1324.47 C 1122.73 1327.87 1128.95 1329.47 1139.11 1330.94 C 1151.5 1332.73 1174.79 1328.73 1174.76 1312.4 C 1174.74 1309.25 1173.46 1306.24 1171.21 1304.04 C 1159.28 1292.32 1135.77 1300.47 1118.5 1299.98 L 1116.57 1299.91 C 1118.96 1280.64 1126.39 1248.15 1130.73 1228.57 z"/>
<path transform="translate(0,0)" fill="rgb(37,142,200)" d="M 1002.43 1229.41 C 1010.41 1229.01 1018.22 1229.25 1026.19 1229.41 C 1023.28 1259.63 1018.38 1290.08 1015.04 1320.29 C 1013.67 1332.69 1012.05 1345.72 1009.86 1357.97 L 973.763 1357.89 L 975.366 1346.62 C 978.607 1319.89 982.74 1293.18 985.961 1266.23 C 976.72 1270.51 967.834 1273.96 958.379 1277.67 C 958.417 1268.78 958.145 1259.51 958.015 1250.58 C 967.51 1245.87 994.164 1230.64 1002.43 1229.41 z"/>
<path transform="translate(0,0)" fill="rgb(37,142,200)" d="M 1077.59 1229 L 1104.33 1228.98 C 1099.86 1267.38 1094.31 1320.44 1087.83 1357.81 L 1051.55 1357.87 C 1054.96 1332.58 1062.13 1290.4 1063.46 1266.22 C 1058.56 1268.37 1044.81 1274 1040.82 1276.41 L 1038.11 1276.59 C 1035.71 1272.93 1035.87 1252.27 1039.31 1248.78 C 1053.95 1242.23 1063.67 1237.5 1077.59 1229 z"/>
<path transform="translate(0,0)" fill="rgb(37,142,200)" d="M 1040.82 1276.41 L 1038.11 1276.59 C 1035.71 1272.93 1035.87 1252.27 1039.31 1248.78 C 1039.62 1258.32 1039.92 1266.86 1040.82 1276.41 z"/>
<path transform="translate(0,0)" fill="rgb(28,91,136)" d="M 1235.31 431.394 C 1257.27 427.973 1283.54 432.572 1305.16 439.242 C 1427.44 476.97 1465.46 647.941 1353.6 721.185 C 1311.23 748.929 1254.4 746.866 1206.91 729.673 C 1218.83 769.545 1205.93 790.364 1170.93 808.861 C 1171.61 849.001 1169.67 889.977 1140.62 920.487 C 1104.1 958.836 1043.14 956.763 1005.52 921.287 C 977.471 894.839 970.048 859.891 968.746 823.105 C 925.666 807.272 914.54 788.737 923.895 743.007 C 886.67 758.45 855.294 761.368 815.538 754.12 C 758.262 739.631 715.134 701.476 699.711 643.616 C 688.759 603.234 694.47 560.145 715.564 524.01 C 737.369 487.08 775.944 457.42 817.599 446.859 C 861.833 435.261 908.873 441.955 948.116 465.431 C 1018.81 507.805 1043.56 605.601 1000.01 675.804 C 1036.6 641.524 1080.4 642.904 1122.39 666.253 C 1083.47 609.745 1084.44 536.558 1129.31 484.013 C 1157.43 451.091 1192.9 436.012 1235.31 431.394 z"/>
<path transform="translate(0,0)" fill="rgb(254,254,254)" d="M 849.623 454.711 C 929.35 449.919 997.777 510.863 1002.21 590.611 C 1006.64 670.359 945.394 738.512 865.627 742.587 C 786.365 746.636 718.737 685.858 714.332 606.615 C 709.927 527.372 770.4 459.472 849.623 454.711 z"/>
<path transform="translate(0,0)" fill="rgb(0,0,0)" d="M 907.972 521.54 C 949.457 519.153 985.008 550.876 987.344 592.363 C 989.68 633.85 957.914 669.363 916.425 671.648 C 875.006 673.93 839.568 642.23 837.236 600.815 C 834.904 559.399 866.56 523.922 907.972 521.54 z"/>
<path transform="translate(0,0)" fill="rgb(254,254,254)" d="M 927.435 543.286 C 939.007 540.664 950.571 547.701 953.561 559.183 C 956.55 570.666 949.885 582.448 938.503 585.802 C 930.811 588.068 922.496 585.965 916.806 580.315 C 911.116 574.665 908.955 566.364 911.167 558.656 C 913.38 550.948 919.615 545.058 927.435 543.286 z"/>
<path transform="translate(0,0)" fill="rgb(254,254,254)" d="M 1239.62 446.4 C 1277.81 443.092 1320.59 457.472 1349.99 481.937 C 1380.9 507.537 1400.16 544.529 1403.41 584.527 C 1410.12 664.782 1356.42 719.002 1278.17 724.733 C 1225.42 725.335 1199.77 711.157 1158.45 680.044 C 1133.55 661.297 1115.36 623.486 1112.04 592.542 C 1108.29 557.86 1118.51 523.113 1140.43 495.974 C 1165.97 464.737 1200.28 450.54 1239.62 446.4 z"/>
<path transform="translate(0,0)" fill="rgb(0,0,0)" d="M 1198.78 516.957 C 1239.55 509.479 1278.59 536.69 1285.69 577.529 C 1292.79 618.367 1265.21 657.155 1224.31 663.873 C 1183.94 670.504 1145.77 643.369 1138.77 603.064 C 1131.76 562.759 1158.54 524.336 1198.78 516.957 z"/>
<path transform="translate(0,0)" fill="rgb(254,254,254)" d="M 1224.11 537.304 C 1235.56 534.051 1247.51 540.613 1250.9 552.027 C 1254.3 563.442 1247.9 575.467 1236.53 579.012 C 1229.04 581.345 1220.88 579.471 1215.16 574.106 C 1209.44 568.742 1207.05 560.716 1208.9 553.097 C 1210.76 545.478 1216.56 539.445 1224.11 537.304 z"/>
<path transform="translate(0,0)" fill="rgb(226,195,146)" d="M 1125.57 686.589 C 1158.64 695.996 1200.07 722.016 1191.76 761.881 C 1184.84 795.072 1148.6 792.779 1123.28 787.412 C 1104.45 783.423 1086.87 779.051 1068.38 774.367 C 1036.66 783.345 999.078 809.156 962.909 799.644 C 925.757 782.22 938.133 743.459 960.544 719.891 C 972.96 706.834 985.603 699.197 1002.03 692.228 C 1012.23 722.11 1033.79 728.994 1062.31 733.675 C 1063.17 740.903 1063.5 749.001 1068.34 754.467 L 1070.26 754.548 C 1075.27 749.234 1075.34 740.805 1076.34 733.371 C 1102.89 730.644 1122.48 713.593 1125.57 686.589 z"/>
<path transform="translate(0,0)" fill="rgb(254,254,254)" d="M 1049.97 802.004 L 1051.2 802.231 C 1058.33 808.023 1061.01 846.618 1062.18 856.952 C 1065.39 885.257 1035.2 895.446 1013.28 881.592 C 999.798 869.414 996.68 837.259 993.854 819.62 C 1015.33 815.262 1029.49 809.588 1049.97 802.004 z"/>
<path transform="translate(0,0)" fill="rgb(254,254,254)" d="M 1090.25 798.984 C 1100.01 798.47 1134.55 808.245 1147.18 811.033 C 1146.83 830.685 1145.53 859.096 1134.21 875.967 C 1127.55 881.988 1120.2 884.671 1110.84 884.207 C 1081.49 882.753 1087.46 844.867 1084.86 824.783 C 1084.22 819.895 1084.82 814.007 1084.97 809.171 C 1085.17 802.999 1086.27 802.431 1090.25 798.984 z"/>
<path transform="translate(0,0)" fill="rgb(226,195,146)" d="M 1541.68 719.495 C 1544.35 700.436 1547.29 692.387 1562.76 679.516 C 1580.54 664.712 1620.43 665.204 1615.46 696.342 C 1614.42 702.994 1606.34 717.274 1609.1 722.685 C 1619.49 723.54 1627.45 689.342 1652.76 691.469 C 1685.24 694.2 1696.57 726.825 1676.84 750.43 C 1672.9 754.816 1663.33 760.394 1662.89 766.612 C 1669.87 770.902 1703.94 754.781 1712.25 789.262 C 1714.5 798.618 1711.22 809.078 1705.62 816.95 C 1692.93 834.783 1677.48 840.821 1657.55 846.802 C 1655.95 863.945 1644.56 896.414 1636.93 912.185 C 1603.92 929.515 1575.82 933.655 1542.18 914.345 C 1509.03 895.318 1495.88 867.352 1486.25 831.742 C 1491.86 805.066 1485.4 757.322 1508.98 741.199 C 1535.83 722.838 1570.69 745.106 1567.48 777.512 C 1567.15 783.158 1563.56 795.83 1566.13 798.658 C 1579.62 797 1583.68 771.557 1581.76 760.869 C 1577.44 736.853 1563.4 726.103 1541.68 719.495 z"/>
<path transform="translate(0,0)" fill="rgb(72,178,219)" d="M 1412.85 380.425 C 1424.96 379.691 1437.1 380.899 1448.82 384.003 C 1474.66 390.718 1499.69 405.453 1513.24 429.124 C 1525.09 450.029 1528.24 474.749 1522.02 497.955 C 1514.95 523.958 1499.8 539.672 1476.99 552.62 C 1472.18 543.183 1467.25 533.807 1462.21 524.494 C 1458.88 519.033 1455.4 513.57 1452 508.144 C 1460.67 503.805 1467.08 499.032 1471.66 490.154 C 1475.54 482.625 1476.2 473.846 1473.5 465.818 C 1467.3 447.167 1446.56 435.586 1427.58 436.125 C 1416.56 436.438 1409.07 438.711 1398.82 442.382 C 1383.93 426.313 1365.58 414.004 1348.65 399.77 C 1367.66 388.193 1390.75 381.945 1412.85 380.425 z"/>
<path transform="translate(0,0)" fill="rgb(226,195,146)" d="M 597.066 1701.45 C 592.155 1699.11 585.096 1695.34 583.699 1689.43 C 576.515 1659.05 614.241 1635.68 641.122 1636.23 C 696.016 1637.36 744.303 1668.3 795.528 1683.88 C 800.077 1685.26 808.04 1686.53 811.585 1689.29 L 811.826 1691.17 C 802.456 1703.11 735.984 1713.85 718.661 1715.57 C 704.419 1716.99 688.329 1717.5 673.58 1717.04 C 666.447 1717.01 660.354 1716.91 653.249 1716.43 C 638.216 1715.7 629.983 1713.96 616.164 1708.41 C 609.712 1706.31 603.41 1703.85 597.066 1701.45 z"/>
<path transform="translate(0,0)" fill="rgb(181,148,104)" d="M 597.066 1701.45 C 603.006 1669.11 612.169 1646.14 651.554 1649.23 C 619.581 1657.74 612.887 1678.35 616.164 1708.41 C 609.712 1706.31 603.41 1703.85 597.066 1701.45 z"/>
<path transform="translate(0,0)" fill="rgb(181,148,104)" d="M 653.249 1716.43 C 650.246 1681.29 656.968 1668.12 693.46 1661.79 C 676.301 1670.38 664.017 1679.25 667.721 1701.41 C 668.932 1708.66 671.211 1710.78 673.58 1717.04 C 666.447 1717.01 660.354 1716.91 653.249 1716.43 z"/>
<path transform="translate(0,0)" fill="rgb(226,195,146)" d="M 1301.81 1689.99 C 1325.59 1684.91 1367.46 1669.82 1390.27 1661.9 C 1420.76 1651.31 1446.35 1628.21 1482.79 1638.09 C 1496.64 1641.72 1513.55 1649.65 1520.5 1663.02 C 1528.98 1679.35 1526.06 1692.23 1510.22 1700.67 C 1505.05 1702.95 1501.08 1704.55 1495.76 1706.47 C 1479.22 1712.74 1472.91 1713.19 1455.22 1712.94 C 1449.25 1712.63 1444.03 1712.7 1438.07 1712.77 C 1398.01 1713.75 1337.23 1709.08 1301.81 1689.99 z"/>
<path transform="translate(0,0)" fill="rgb(181,148,104)" d="M 1413.65 1657.69 C 1445.61 1663.64 1460.46 1678.53 1455.22 1712.94 C 1449.25 1712.63 1444.03 1712.7 1438.07 1712.77 C 1449.16 1685.41 1435.69 1671.36 1413.65 1657.69 z"/>
<path transform="translate(0,0)" fill="rgb(181,148,104)" d="M 1464.2 1653.02 C 1484.4 1658.71 1505.01 1664.26 1509.28 1688.57 C 1509.99 1692.64 1509.11 1696.54 1510.22 1700.67 C 1505.05 1702.95 1501.08 1704.55 1495.76 1706.47 C 1503.71 1680.18 1485.3 1663.63 1464.2 1653.02 z"/>
<path transform="translate(0,0)" fill="rgb(72,178,219)" d="M 666.316 396.426 C 685.128 396.531 703.445 399.439 719.97 408.773 C 700.866 425.113 692.45 433.82 675.075 452.313 C 666.107 449.893 660.522 448.752 650.984 449.042 C 621.299 449.944 595.698 477.437 611.346 506.588 C 615.37 514.086 620.064 517.946 626.315 523.715 L 616.02 546.601 L 606.95 567.965 C 558.745 540.904 547.376 471.583 585.558 431.207 C 608.25 407.21 634.005 398.186 666.316 396.426 z"/>
<path transform="translate(0,0)" fill="rgb(72,178,219)" d="M 1649.45 1036.91 L 1650.67 1037.23 C 1657.66 1043.42 1670.1 1064.84 1675.05 1073.81 C 1717.46 1150.72 1734.66 1236.96 1710.33 1322.57 C 1673.48 1308.75 1637.53 1313.02 1608.63 1340.92 C 1602.29 1347.1 1600.18 1351.02 1596.08 1358.57 C 1583.92 1346.54 1580.16 1343.31 1564.06 1337.35 C 1562.13 1284.67 1558.79 1229.72 1551.78 1177.57 C 1550.17 1165.67 1548.26 1149.72 1545.81 1138.21 C 1552.97 1131.55 1572.95 1118.33 1582.32 1110.74 C 1611.15 1087.39 1627.18 1066.24 1649.45 1036.91 z"/>
<path transform="translate(0,0)" fill="rgb(226,195,146)" d="M 1612.77 1162.14 C 1614.57 1166.41 1616.21 1183.14 1619.96 1188.43 C 1624.3 1194.55 1640.24 1197.18 1648.08 1199.03 C 1620.99 1203.59 1618.44 1206.55 1613.18 1232.76 L 1612.74 1233.31 L 1611.66 1233.38 C 1608.07 1207.05 1603.46 1205.57 1578.99 1198.9 C 1607.63 1191.9 1606.39 1189.74 1612.77 1162.14 z"/>
<path transform="translate(0,0)" fill="rgb(72,178,219)" d="M 1671.54 1330.4 C 1682.33 1328.76 1698.8 1331.66 1708.44 1336.73 C 1741.19 1353.96 1747.83 1374.09 1747.91 1408.26 C 1757.56 1403.97 1765.89 1400.89 1776.79 1401.42 C 1788.84 1402.02 1800.13 1407.5 1808.06 1416.58 C 1816.5 1425.94 1820.59 1438.43 1819.3 1450.97 C 1813.82 1507.21 1719.94 1510.93 1678.77 1504.92 C 1666.88 1503.05 1657.84 1500.48 1646.24 1497.25 C 1616.96 1511.33 1583.65 1514.62 1552.19 1506.55 C 1560.53 1460.02 1568.94 1428.53 1565.99 1379.2 C 1581.28 1384.48 1586.63 1387.51 1598.38 1398.48 C 1605.79 1383.49 1607.57 1371.06 1619.8 1356.86 C 1635.2 1338.98 1648.68 1332.66 1671.54 1330.4 z"/>
<path transform="translate(0,0)" fill="rgb(72,178,219)" d="M 449.628 718.155 C 534.47 713.558 526.605 818.615 439.197 835.824 C 425.321 837.291 411.587 835.567 399.566 827.922 C 389.48 821.625 382.363 811.524 379.828 799.908 C 374.507 774.396 387.016 751.707 406.486 736.243 C 420.491 725.119 432.389 721.389 449.628 718.155 z"/>
<path transform="translate(0,0)" fill="rgb(179,225,233)" d="M 471.77 738.947 C 488.033 739.29 496.157 752.347 480.753 761.632 C 474.617 762.198 469.893 761.912 465.88 756.501 C 463.962 753.941 463.281 750.662 464.02 747.55 C 465.106 742.994 468.108 741.274 471.77 738.947 z"/>
<path transform="translate(0,0)" fill="rgb(72,178,219)" d="M 1625.45 1579.15 C 1647.55 1578.25 1651.28 1595.46 1633.82 1605.68 C 1611.49 1611.61 1607 1590.15 1625.45 1579.15 z"/>
<path transform="translate(0,0)" fill="rgb(72,178,219)" d="M 1675.96 1637.89 C 1691.86 1640.59 1692.44 1657.01 1678.66 1662.35 C 1661.94 1659.53 1661.02 1646.71 1675.96 1637.89 z"/>
<path transform="translate(0,0)" fill="rgb(72,178,219)" d="M 1657.33 1537.59 C 1660.9 1536.07 1665.01 1536.6 1668.09 1538.96 C 1671.16 1541.33 1672.73 1545.16 1672.18 1549.01 C 1671.63 1552.85 1669.06 1556.1 1665.44 1557.51 C 1659.96 1559.64 1653.79 1556.99 1651.57 1551.54 C 1649.36 1546.1 1651.92 1539.89 1657.33 1537.59 z"/>
<path transform="translate(0,0)" fill="rgb(72,178,219)" d="M 1594.38 1539.31 C 1598.54 1537.92 1603.06 1540.03 1604.66 1544.11 C 1606.26 1548.19 1604.39 1552.82 1600.4 1554.63 C 1597.62 1555.89 1594.38 1555.51 1591.97 1553.65 C 1589.55 1551.8 1588.36 1548.76 1588.86 1545.75 C 1589.37 1542.75 1591.49 1540.27 1594.38 1539.31 z"/>
</svg>